<?xml version="1.0" standalone="no"?><!DOCTYPE svg PUBLIC "-//W3C//DTD SVG 1.1//EN" "http://www.w3.org/Graphics/SVG/1.1/DTD/svg11.dtd"><svg t="1490594888293" class="icon" style="" viewBox="0 0 1024 1024" version="1.1" xmlns="http://www.w3.org/2000/svg" p-id="2503" xmlns:xlink="http://www.w3.org/1999/xlink" width="64" height="64"><defs><style type="text/css"></style></defs><path d="M384 0C171.92267 0 0 171.92267 0 384s171.92267 384 384 384 384-171.92267 384-384S596.07733 0 384 0zM384 640c-141.38489 0-256-114.61511-256-256s114.61511-256 256-256 256 114.61511 256 256S525.38489 640 384 640z" p-id="2504"></path><path d="M723.84192 819.84192 908.1178 1004.1178C920.84814 1016.84814 938.11426 1024 956.11774 1024l6.0e-05 0c37.4903 0 67.8822-30.39191 67.8822-67.8822l0-0.69757c0-18.00348-7.15186-35.26953-19.8822-47.99994L820.53967 723.84222c-12.70667-12.70673-29.93329-19.85663-47.90326-19.88232l-0.6972-0.00098c-37.56659-0.05371-68.03369 30.4137-67.97961 67.98029l0 0.00012C703.98547 789.90906 711.13538 807.13538 723.84192 819.84192z" p-id="2505"></path></svg>