<?xml version="1.0" standalone="no"?><!DOCTYPE svg PUBLIC "-//W3C//DTD SVG 1.1//EN" "http://www.w3.org/Graphics/SVG/1.1/DTD/svg11.dtd"><svg t="1492159717207" class="icon" style="" viewBox="0 0 1024 1024" version="1.1" xmlns="http://www.w3.org/2000/svg" p-id="2916" xmlns:xlink="http://www.w3.org/1999/xlink" width="64" height="64"><defs><style type="text/css"></style></defs><path d="M509.419222 10.734482c-277.671067 0-502.767731 225.097688-502.767732 502.767731s225.096664 502.767731 502.767732 502.767732c277.670044 0 502.767731-225.097688 502.767731-502.767732S787.089265 10.734482 509.419222 10.734482z m291.298435 668.179039c-12.375865 12.70844-32.42755 12.70844-44.803415 0L510.458901 426.860924 265.002536 678.913521c-12.375865 12.70844-32.42755 12.70844-44.803415 0-12.441357-12.774955-12.441357-33.298384 0-46.074362l262.066671-269.111111c24.353664-20.863167 38.052664-18.755156 56.384171 0l262.066671 269.111111c12.44238 12.775978 12.44238 33.299407 0.001023 46.074362z" fill="" p-id="2917"></path></svg>