<?xml version="1.0" standalone="no"?><!DOCTYPE svg PUBLIC "-//W3C//DTD SVG 1.1//EN" "http://www.w3.org/Graphics/SVG/1.1/DTD/svg11.dtd"><svg t="1490954963137" class="icon" style="" viewBox="0 0 1024 1024" version="1.1" xmlns="http://www.w3.org/2000/svg" p-id="3723" xmlns:xlink="http://www.w3.org/1999/xlink" width="64" height="64"><defs><style type="text/css"></style></defs><path d="M455.562105 488.985844c-85.521792 3.947915-154.637939 49.876967-154.637939 107.148345 0 57.20998 69.116147 100.197026 154.637939 96.192829 85.547375-3.89675 154.806785-57.592696 154.806785-114.795513C610.36889 520.377808 541.111526 485.033835 455.562105 488.985844zM513.799484 633.050983c-26.184359 33.886785-77.994352 50.433646-128.308271 23.108301-23.939225-13.025665-23.065322-38.59911-23.065322-38.59911s-9.92607-80.762395 76.060303-90.853218C524.629133 516.685719 539.984866 599.145779 513.799484 633.050983z" p-id="3724"></path><path d="M415.360498 590.063937c-16.057721 1.683339-27.559683 15.722076-27.559683 29.133527 0 13.470803 12.95301 22.748097 28.994358 20.862143 16.011672-1.820462 29.02608-14.219863 29.02608-27.628244C445.821253 598.959537 433.806615 588.304873 415.360498 590.063937z" p-id="3725"></path><path d="M456.121853 578.964134c-5.493108 4.013407-6.617721 11.656481-3.622504 16.418948 2.87242 4.889357 9.550517 5.453199 14.998599 1.379417 5.321192-4.200672 7.380084-11.531638 4.494361-16.412808C469.120912 575.578014 462.486818 574.206784 456.121853 578.964134z" p-id="3726"></path><path d="M860.084255 76.893274 163.914722 76.893274c-48.061622 0-87.021959 38.960337-87.021959 87.021959l0 696.169533c0 48.060599 38.960337 87.020936 87.021959 87.020936l696.169533 0c48.060599 0 87.021959-38.960337 87.021959-87.020936L947.106214 163.915233C947.106214 115.853611 908.144854 76.893274 860.084255 76.893274zM686.803723 615.495142c-35.237549 75.068719-151.499459 111.610984-237.626026 104.836697-81.866542-6.455015-187.129958-33.715893-197.98826-133.036969 0 0-5.774517-44.99068 37.732369-103.199407 0 0 62.578244-87.600127 135.441739-112.602567 72.940243-24.870434 81.44494 17.234523 81.44494 42.108027-3.869121 21.115923-11.140735 33.521464 16.244986 25.003464 0 0 71.694879-33.333176 101.20396-3.762697 23.799032 23.87578 3.933589 56.714699 3.933589 56.714699s-9.877975 10.961656 10.423397 14.911618C657.995607 510.543835 722.056622 540.303626 686.803723 615.495142zM616.111684 408.087349c-7.80271 0-14.048971-6.328126-14.048971-14.09502 0-7.892761 6.246261-14.222933 14.048971-14.222933 0 0 87.889723-16.296151 77.386508 78.386278 0 0.563842-0.061398 1.001817-0.186242 1.502213-0.983397 6.704702-6.883781 11.843746-13.811564 11.843746-7.834432 0-14.186094-6.266727-14.183024-14.09502C665.317363 457.405591 679.2507 394.117173 616.111684 408.087349zM764.689604 483.804844l-0.124843 0c-2.324952 16.020882-10.253528 17.312294-19.708877 17.312294-11.30037 0-20.412912-7.125281-20.412912-18.470677 0-9.825786 4.058432-19.806091 4.058432-19.806091 1.184989-4.130064 10.736529-29.837562-6.303566-68.24736-31.275307-52.630684-94.199429-53.399187-101.639888-50.392714-7.507998 2.940982-18.555611 4.426823-18.555611 4.426823-11.393491 0-20.506033-9.277294-20.506033-20.559245 0-9.465582 6.303566-17.476023 14.951527-19.923772 0 0 0.186242-0.314155 0.484024-0.3776 0.621147-0.124843 1.261737-0.765433 1.935072-0.829901 8.754385-1.682315 39.996946-7.828292 70.397327-0.695848C723.632513 318.960449 798.260188 371.657648 764.689604 483.804844z" p-id="3727"></path></svg>